<svg width="1435" height="946" viewBox="0 0 1435 946" fill="none" xmlns="http://www.w3.org/2000/svg">
<mask id="mask0_1_318" style="mask-type:alpha" maskUnits="userSpaceOnUse" x="0" y="0" width="1435" height="946">
<rect width="1434.67" height="946" fill="#0B0B0B"/>
</mask>
<g mask="url(#mask0_1_318)">
<g opacity="0.15">
<path d="M185.546 -369.531L186.046 -327.769C189.555 -34.4663 480.056 160.46 697.345 15.3122L729.602 -6.23504C933.894 -142.701 1206.84 41.832 1208.42 317.478L1209.02 423.004C1210.15 621.002 1390.33 767.512 1552.13 702.006V702.006" stroke="#FFFEFE" stroke-width="0.653416"/>
<path d="M173.614 -345.306L174.114 -303.544C177.624 -10.2412 468.125 184.685 685.413 39.5373L717.67 17.9901C921.962 -118.475 1194.91 66.0571 1196.49 341.703L1197.09 447.229C1198.22 645.227 1378.39 791.737 1540.2 726.231V726.231" stroke="#FFFEFE" stroke-width="0.653416"/>
<path d="M161.685 -321.081L162.184 -279.319C165.694 13.9841 456.195 208.91 673.484 63.7625L705.741 42.2153C910.033 -94.2503 1182.98 90.2823 1184.56 365.928L1185.16 471.454C1186.29 669.453 1366.46 815.963 1528.27 750.457V750.457" stroke="#FFFEFE" stroke-width="0.653416"/>
<path d="M149.752 -296.856L150.252 -255.094C153.761 38.2089 444.263 233.135 661.551 87.9873L693.808 66.4401C898.1 -70.0254 1171.05 114.507 1172.63 390.153L1173.23 495.679C1174.36 693.678 1354.53 840.187 1516.33 774.681V774.681" stroke="#FFFEFE" stroke-width="0.653416"/>
<path d="M137.822 -272.632L138.322 -230.869C141.831 62.4331 432.333 257.359 649.621 112.212L681.878 90.6644C886.17 -45.8012 1159.12 138.731 1160.7 414.377L1161.3 519.903C1162.43 717.902 1342.6 864.412 1504.4 798.906V798.906" stroke="#FFFEFE" stroke-width="0.653416"/>
<path d="M125.888 -248.406L126.388 -206.644C129.898 86.6587 420.399 281.585 637.688 136.437L669.944 114.89C874.236 -21.5756 1147.19 162.957 1148.76 438.603L1149.36 544.129C1150.5 742.127 1330.67 888.637 1492.47 823.131V823.131" stroke="#FFFEFE" stroke-width="0.653416"/>
<path d="M113.959 -224.181L114.458 -182.419C117.968 110.884 408.469 305.81 625.758 160.662L658.015 139.115C862.307 2.64965 1135.26 187.182 1136.83 462.828L1137.44 568.354C1138.57 766.353 1318.74 912.862 1480.54 847.356V847.356" stroke="#FFFEFE" stroke-width="0.653416"/>
<path d="M102.028 -199.956L102.527 -158.194C106.037 135.108 396.538 330.034 613.827 184.887L646.084 163.34C850.376 26.8741 1123.33 211.407 1124.9 487.052L1125.5 592.578C1126.64 790.577 1306.81 937.087 1468.61 871.581V871.581" stroke="#FFFEFE" stroke-width="0.653416"/>
<path d="M90.0957 -175.731L90.5954 -133.969C94.1051 159.334 384.606 354.26 601.895 209.112L634.152 187.565C838.444 51.0995 1111.39 235.632 1112.97 511.278L1113.57 616.804C1114.7 814.802 1294.88 961.312 1456.68 895.806V895.806" stroke="#FFFEFE" stroke-width="0.653416"/>
<path d="M78.1657 -151.506L78.6654 -109.744C82.1751 183.558 372.676 378.484 589.965 233.337L622.222 211.79C826.514 75.3241 1099.46 259.857 1101.04 535.502L1101.64 641.028C1102.77 839.027 1282.95 985.537 1444.75 920.031V920.031" stroke="#FFFEFE" stroke-width="0.653416"/>
<path d="M66.233 -127.282L66.7328 -85.5196C70.2425 207.783 360.744 402.709 578.032 257.561L610.289 236.014C814.581 99.5487 1087.53 284.081 1089.11 559.727L1089.71 665.253C1090.84 863.252 1271.01 1009.76 1432.82 944.256V944.256" stroke="#FFFEFE" stroke-width="0.653416"/>
<path d="M54.3028 -103.057L54.8025 -61.2945C58.3123 232.008 348.813 426.934 566.102 281.787L598.359 260.239C802.651 123.774 1075.6 308.306 1077.18 583.952L1077.78 689.478C1078.91 887.477 1259.08 1033.99 1420.89 968.481V968.481" stroke="#FFFEFE" stroke-width="0.653416"/>
<path d="M42.3728 -78.8324L42.8725 -37.0702C46.3823 256.232 336.883 451.158 554.172 306.011L586.429 284.464C790.721 147.998 1063.67 332.531 1065.25 608.176L1065.85 713.703C1066.98 911.701 1247.15 1058.21 1408.96 992.705V992.705" stroke="#FFFEFE" stroke-width="0.653416"/>
<path d="M30.441 -54.607L30.9408 -12.8448C34.4505 280.458 324.952 475.384 542.24 330.236L574.497 308.689C778.789 172.224 1051.74 356.756 1053.31 632.402L1053.92 737.928C1055.05 935.927 1235.22 1082.44 1397.02 1016.93V1016.93" stroke="#FFFEFE" stroke-width="0.653416"/>
<path d="M18.5093 -30.3818L19.0091 11.3804C22.5188 304.683 313.02 499.609 530.309 354.461L562.565 332.914C766.857 196.449 1039.81 380.981 1041.38 656.627L1041.99 762.153C1043.12 960.152 1223.29 1106.66 1385.09 1041.16V1041.16" stroke="#FFFEFE" stroke-width="0.653416"/>
<path d="M6.86061 -6.73028L7.36034 35.032C10.8701 328.335 301.371 523.26 518.66 378.113L550.917 356.566C755.209 220.1 1028.16 404.633 1029.73 680.279L1030.34 785.805C1031.47 983.803 1211.64 1130.31 1373.44 1064.81V1064.81" stroke="#FFFEFE" stroke-width="0.653416"/>
<path d="M-4.7882 16.9212L-4.28846 58.6834C-0.778738 351.986 289.722 546.912 507.011 401.764L539.268 380.217C743.56 243.752 1016.51 428.284 1018.09 703.93L1018.69 809.456C1019.82 1007.45 1199.99 1153.96 1361.79 1088.46V1088.46" stroke="#FFFEFE" stroke-width="0.653416"/>
<path d="M-16.437 40.5727L-15.9373 82.3349C-12.4275 375.638 278.074 570.563 495.362 425.416L527.619 403.869C731.911 267.403 1004.86 451.936 1006.44 727.582L1007.04 833.108C1008.17 1031.11 1188.34 1177.62 1350.15 1112.11V1112.11" stroke="#FFFEFE" stroke-width="0.653416"/>
<path d="M-28.0858 64.2242L-27.5861 105.986C-24.0763 399.289 266.425 594.215 483.714 449.067L515.97 427.52C720.262 291.055 993.212 475.587 994.788 751.233L995.391 856.759C996.522 1054.76 1176.69 1201.27 1338.5 1135.76V1135.76" stroke="#FFFEFE" stroke-width="0.653416"/>
<path d="M-39.7346 87.8756L-39.2349 129.638C-35.7251 422.94 254.776 617.866 472.065 472.719L504.321 451.172C708.613 314.706 981.564 499.239 983.139 774.884L983.742 880.411C984.873 1078.41 1165.05 1224.92 1326.85 1159.41V1159.41" stroke="#FFFEFE" stroke-width="0.653416"/>
<path d="M-51.3834 111.527L-50.8836 153.289C-47.3739 446.592 243.127 641.518 460.416 496.37L492.673 474.823C696.965 338.358 969.915 522.89 971.49 798.536L972.093 904.062C973.225 1102.06 1153.4 1248.57 1315.2 1183.06V1183.06" stroke="#FFFEFE" stroke-width="0.653416"/>
<path d="M-63.0322 135.179L-62.5324 176.941C-59.0227 470.244 231.478 665.169 448.767 520.022L481.024 498.475C685.316 362.009 958.266 546.542 959.841 822.187L960.444 927.714C961.576 1125.71 1141.75 1272.22 1303.55 1206.72V1206.72" stroke="#FFFEFE" stroke-width="0.653416"/>
<path d="M-74.681 158.83L-74.1812 200.592C-70.6715 493.895 219.83 688.821 437.118 543.673L469.375 522.126C673.667 385.661 946.617 570.193 948.192 845.839L948.796 951.365C949.927 1149.36 1130.1 1295.87 1291.9 1230.37V1230.37" stroke="#FFFEFE" stroke-width="0.653416"/>
<path d="M-86.3298 182.482L-85.8301 224.244C-82.3204 517.547 208.181 712.473 425.47 567.325L457.726 545.778C662.018 409.312 934.968 593.845 936.544 869.491L937.147 975.017C938.278 1173.02 1118.45 1319.53 1280.25 1254.02V1254.02" stroke="#FFFEFE" stroke-width="0.653416"/>
<path d="M-97.9786 206.133L-97.4789 247.895C-93.9692 541.198 196.532 736.124 413.821 590.976L446.077 569.429C650.369 432.964 923.319 617.496 924.895 893.142L925.498 998.668C926.629 1196.67 1106.8 1343.18 1268.6 1277.67V1277.67" stroke="#FFFEFE" stroke-width="0.653416"/>
<path d="M-109.627 229.785L-109.128 271.547C-105.618 564.85 184.883 759.775 402.172 614.628L434.429 593.081C638.721 456.615 911.671 641.148 913.246 916.794L913.849 1022.32C914.981 1220.32 1095.15 1366.83 1256.96 1301.32V1301.32" stroke="#FFFEFE" stroke-width="0.653416"/>
<path d="M-121.276 253.436L-120.776 295.199C-117.267 588.501 173.234 783.427 390.523 638.28L422.78 616.732C627.072 480.267 900.022 664.799 901.597 940.445L902.2 1045.97C903.332 1243.97 1083.5 1390.48 1245.31 1324.97V1324.97" stroke="#FFFEFE" stroke-width="0.653416"/>
<path d="M-132.925 277.088L-132.425 318.85C-128.915 612.153 161.586 807.078 378.874 661.931L411.131 640.384C615.423 503.918 888.373 688.451 889.949 964.097L890.552 1069.62C891.683 1267.62 1071.86 1414.13 1233.66 1348.63V1348.63" stroke="#FFFEFE" stroke-width="0.653416"/>
<path d="M-144.574 300.739L-144.074 342.501C-140.564 635.804 149.937 830.73 367.226 685.583L399.482 664.035C603.774 527.57 876.724 712.102 878.3 987.748L878.903 1093.27C880.034 1291.27 1060.21 1437.78 1222.01 1372.28V1372.28" stroke="#FFFEFE" stroke-width="0.653416"/>
</g>
</g>
</svg>
